<?xml version="1.0" standalone="no"?>
<!DOCTYPE svg PUBLIC "-//W3C//DTD SVG 20010904//EN"
 "http://www.w3.org/TR/2001/REC-SVG-20010904/DTD/svg10.dtd">
<svg version="1.0" xmlns="http://www.w3.org/2000/svg"
 width="96.000000pt" height="96.000000pt" viewBox="0 0 96.000000 96.000000"
 preserveAspectRatio="xMidYMid meet">
<metadata>
Created by potrace 1.11, written by Peter Selinger 2001-2013
</metadata>
<g transform="translate(0.000000,96.000000) scale(0.100000,-0.100000)"
fill="#000000" stroke="none">
<path d="M705 814 c-23 -22 -27 -31 -22 -62 12 -69 80 -94 131 -47 34 31 34
73 1 109 -31 34 -73 34 -110 0z"/>
<path d="M202 809 c-8 -12 -10 -25 -5 -29 4 -5 84 -56 176 -114 162 -102 169
-106 195 -92 26 14 27 13 42 -27 12 -34 29 -51 85 -89 39 -26 75 -47 81 -47
12 -1 44 41 44 56 0 5 -25 23 -55 41 -82 49 -85 54 -85 132 0 84 -16 109 -78
117 -35 5 -54 0 -105 -26 l-63 -32 -104 65 c-57 36 -106 66 -109 66 -4 0 -12
-10 -19 -21z"/>
<path d="M346 595 c-38 -59 -15 -98 89 -149 42 -21 75 -39 73 -41 -12 -11
-128 -75 -137 -75 -6 0 -64 30 -128 66 l-116 66 -18 -23 c-10 -13 -19 -29 -19
-35 0 -9 387 -236 516 -302 55 -29 147 -20 213 21 30 18 32 21 15 28 -11 3
-37 3 -59 0 -38 -7 -126 10 -150 29 -5 4 -37 22 -70 40 -80 44 -95 54 -95 61
0 3 18 14 41 24 85 39 120 98 89 154 -7 14 -145 112 -216 154 -7 4 -19 -4 -28
-18z"/>
</g>
</svg>
